<?xml version="1.0" encoding="UTF-8"?>
<!DOCTYPE svg PUBLIC "-//W3C//DTD SVG 1.1//EN"
 "http://www.w3.org/Graphics/SVG/1.1/DTD/svg11.dtd">
<svg xmlns="http://www.w3.org/2000/svg" version="1.1"
     width="180mm" height="25mm"
     viewBox="0 0 256 1" preserveAspectRatio="none"
     shape-rendering="crispEdges" stroke="none">
<rect width="1" height=".96" x="0" y="0" fill="#30123B" />
<rect width="1" height=".96" x="1" y="0" fill="#321543" />
<rect width="1" height=".96" x="2" y="0" fill="#33184A" />
<rect width="1" height=".96" x="3" y="0" fill="#341B51" />
<rect width="1" height=".96" x="4" y="0" fill="#351E58" />
<rect width="1" height=".96" x="5" y="0" fill="#36215F" />
<rect width="1" height=".96" x="6" y="0" fill="#372466" />
<rect width="1" height=".96" x="7" y="0" fill="#38276D" />
<rect width="1" height=".96" x="8" y="0" fill="#392A73" />
<rect width="1" height=".96" x="9" y="0" fill="#3A2D79" />
<rect width="1" height=".96" x="10" y="0" fill="#3B2F80" />
<rect width="1" height=".96" x="11" y="0" fill="#3C3286" />
<rect width="1" height=".96" x="12" y="0" fill="#3D358B" />
<rect width="1" height=".96" x="13" y="0" fill="#3E3891" />
<rect width="1" height=".96" x="14" y="0" fill="#3F3B97" />
<rect width="1" height=".96" x="15" y="0" fill="#3F3E9C" />
<rect width="1" height=".96" x="16" y="0" fill="#4040A2" />
<rect width="1" height=".96" x="17" y="0" fill="#4143A7" />
<rect width="1" height=".96" x="18" y="0" fill="#4146AC" />
<rect width="1" height=".96" x="19" y="0" fill="#4249B1" />
<rect width="1" height=".96" x="20" y="0" fill="#424BB5" />
<rect width="1" height=".96" x="21" y="0" fill="#434EBA" />
<rect width="1" height=".96" x="22" y="0" fill="#4451BF" />
<rect width="1" height=".96" x="23" y="0" fill="#4454C3" />
<rect width="1" height=".96" x="24" y="0" fill="#4456C7" />
<rect width="1" height=".96" x="25" y="0" fill="#4559CB" />
<rect width="1" height=".96" x="26" y="0" fill="#455CCF" />
<rect width="1" height=".96" x="27" y="0" fill="#455ED3" />
<rect width="1" height=".96" x="28" y="0" fill="#4661D6" />
<rect width="1" height=".96" x="29" y="0" fill="#4664DA" />
<rect width="1" height=".96" x="30" y="0" fill="#4666DD" />
<rect width="1" height=".96" x="31" y="0" fill="#4669E0" />
<rect width="1" height=".96" x="32" y="0" fill="#466BE3" />
<rect width="1" height=".96" x="33" y="0" fill="#476EE6" />
<rect width="1" height=".96" x="34" y="0" fill="#4771E9" />
<rect width="1" height=".96" x="35" y="0" fill="#4773EB" />
<rect width="1" height=".96" x="36" y="0" fill="#4776EE" />
<rect width="1" height=".96" x="37" y="0" fill="#4778F0" />
<rect width="1" height=".96" x="38" y="0" fill="#477BF2" />
<rect width="1" height=".96" x="39" y="0" fill="#467DF4" />
<rect width="1" height=".96" x="40" y="0" fill="#4680F6" />
<rect width="1" height=".96" x="41" y="0" fill="#4682F8" />
<rect width="1" height=".96" x="42" y="0" fill="#4685FA" />
<rect width="1" height=".96" x="43" y="0" fill="#4687FB" />
<rect width="1" height=".96" x="44" y="0" fill="#458AFC" />
<rect width="1" height=".96" x="45" y="0" fill="#458CFD" />
<rect width="1" height=".96" x="46" y="0" fill="#448FFE" />
<rect width="1" height=".96" x="47" y="0" fill="#4391FE" />
<rect width="1" height=".96" x="48" y="0" fill="#4294FF" />
<rect width="1" height=".96" x="49" y="0" fill="#4196FF" />
<rect width="1" height=".96" x="50" y="0" fill="#4099FF" />
<rect width="1" height=".96" x="51" y="0" fill="#3E9BFE" />
<rect width="1" height=".96" x="52" y="0" fill="#3D9EFE" />
<rect width="1" height=".96" x="53" y="0" fill="#3BA0FD" />
<rect width="1" height=".96" x="54" y="0" fill="#3AA3FC" />
<rect width="1" height=".96" x="55" y="0" fill="#38A5FB" />
<rect width="1" height=".96" x="56" y="0" fill="#37A8FA" />
<rect width="1" height=".96" x="57" y="0" fill="#35ABF8" />
<rect width="1" height=".96" x="58" y="0" fill="#33ADF7" />
<rect width="1" height=".96" x="59" y="0" fill="#31AFF5" />
<rect width="1" height=".96" x="60" y="0" fill="#2FB2F4" />
<rect width="1" height=".96" x="61" y="0" fill="#2EB4F2" />
<rect width="1" height=".96" x="62" y="0" fill="#2CB7F0" />
<rect width="1" height=".96" x="63" y="0" fill="#2AB9EE" />
<rect width="1" height=".96" x="64" y="0" fill="#28BCEB" />
<rect width="1" height=".96" x="65" y="0" fill="#27BEE9" />
<rect width="1" height=".96" x="66" y="0" fill="#25C0E7" />
<rect width="1" height=".96" x="67" y="0" fill="#23C3E4" />
<rect width="1" height=".96" x="68" y="0" fill="#22C5E2" />
<rect width="1" height=".96" x="69" y="0" fill="#20C7DF" />
<rect width="1" height=".96" x="70" y="0" fill="#1FC9DD" />
<rect width="1" height=".96" x="71" y="0" fill="#1ECBDA" />
<rect width="1" height=".96" x="72" y="0" fill="#1CCDD8" />
<rect width="1" height=".96" x="73" y="0" fill="#1BD0D5" />
<rect width="1" height=".96" x="74" y="0" fill="#1AD2D2" />
<rect width="1" height=".96" x="75" y="0" fill="#1AD4D0" />
<rect width="1" height=".96" x="76" y="0" fill="#19D5CD" />
<rect width="1" height=".96" x="77" y="0" fill="#18D7CA" />
<rect width="1" height=".96" x="78" y="0" fill="#18D9C8" />
<rect width="1" height=".96" x="79" y="0" fill="#18DBC5" />
<rect width="1" height=".96" x="80" y="0" fill="#18DDC2" />
<rect width="1" height=".96" x="81" y="0" fill="#18DEC0" />
<rect width="1" height=".96" x="82" y="0" fill="#18E0BD" />
<rect width="1" height=".96" x="83" y="0" fill="#19E2BB" />
<rect width="1" height=".96" x="84" y="0" fill="#19E3B9" />
<rect width="1" height=".96" x="85" y="0" fill="#1AE4B6" />
<rect width="1" height=".96" x="86" y="0" fill="#1CE6B4" />
<rect width="1" height=".96" x="87" y="0" fill="#1DE7B2" />
<rect width="1" height=".96" x="88" y="0" fill="#1FE9AF" />
<rect width="1" height=".96" x="89" y="0" fill="#20EAAC" />
<rect width="1" height=".96" x="90" y="0" fill="#22EBAA" />
<rect width="1" height=".96" x="91" y="0" fill="#25ECA7" />
<rect width="1" height=".96" x="92" y="0" fill="#27EEA4" />
<rect width="1" height=".96" x="93" y="0" fill="#2AEFA1" />
<rect width="1" height=".96" x="94" y="0" fill="#2CF09E" />
<rect width="1" height=".96" x="95" y="0" fill="#2FF19B" />
<rect width="1" height=".96" x="96" y="0" fill="#32F298" />
<rect width="1" height=".96" x="97" y="0" fill="#35F394" />
<rect width="1" height=".96" x="98" y="0" fill="#38F491" />
<rect width="1" height=".96" x="99" y="0" fill="#3CF58E" />
<rect width="1" height=".96" x="100" y="0" fill="#3FF68A" />
<rect width="1" height=".96" x="101" y="0" fill="#43F787" />
<rect width="1" height=".96" x="102" y="0" fill="#46F884" />
<rect width="1" height=".96" x="103" y="0" fill="#4AF880" />
<rect width="1" height=".96" x="104" y="0" fill="#4EF97D" />
<rect width="1" height=".96" x="105" y="0" fill="#52FA7A" />
<rect width="1" height=".96" x="106" y="0" fill="#55FA76" />
<rect width="1" height=".96" x="107" y="0" fill="#59FB73" />
<rect width="1" height=".96" x="108" y="0" fill="#5DFC6F" />
<rect width="1" height=".96" x="109" y="0" fill="#61FC6C" />
<rect width="1" height=".96" x="110" y="0" fill="#65FD69" />
<rect width="1" height=".96" x="111" y="0" fill="#69FD66" />
<rect width="1" height=".96" x="112" y="0" fill="#6DFE62" />
<rect width="1" height=".96" x="113" y="0" fill="#71FE5F" />
<rect width="1" height=".96" x="114" y="0" fill="#75FE5C" />
<rect width="1" height=".96" x="115" y="0" fill="#79FE59" />
<rect width="1" height=".96" x="116" y="0" fill="#7DFF56" />
<rect width="1" height=".96" x="117" y="0" fill="#80FF53" />
<rect width="1" height=".96" x="118" y="0" fill="#84FF51" />
<rect width="1" height=".96" x="119" y="0" fill="#88FF4E" />
<rect width="1" height=".96" x="120" y="0" fill="#8BFF4B" />
<rect width="1" height=".96" x="121" y="0" fill="#8FFF49" />
<rect width="1" height=".96" x="122" y="0" fill="#92FF47" />
<rect width="1" height=".96" x="123" y="0" fill="#96FE44" />
<rect width="1" height=".96" x="124" y="0" fill="#99FE42" />
<rect width="1" height=".96" x="125" y="0" fill="#9CFE40" />
<rect width="1" height=".96" x="126" y="0" fill="#9FFD3F" />
<rect width="1" height=".96" x="127" y="0" fill="#A1FD3D" />
<rect width="1" height=".96" x="128" y="0" fill="#A4FC3C" />
<rect width="1" height=".96" x="129" y="0" fill="#A7FC3A" />
<rect width="1" height=".96" x="130" y="0" fill="#A9FB39" />
<rect width="1" height=".96" x="131" y="0" fill="#ACFB38" />
<rect width="1" height=".96" x="132" y="0" fill="#AFFA37" />
<rect width="1" height=".96" x="133" y="0" fill="#B1F936" />
<rect width="1" height=".96" x="134" y="0" fill="#B4F836" />
<rect width="1" height=".96" x="135" y="0" fill="#B7F735" />
<rect width="1" height=".96" x="136" y="0" fill="#B9F635" />
<rect width="1" height=".96" x="137" y="0" fill="#BCF534" />
<rect width="1" height=".96" x="138" y="0" fill="#BEF434" />
<rect width="1" height=".96" x="139" y="0" fill="#C1F334" />
<rect width="1" height=".96" x="140" y="0" fill="#C3F134" />
<rect width="1" height=".96" x="141" y="0" fill="#C6F034" />
<rect width="1" height=".96" x="142" y="0" fill="#C8EF34" />
<rect width="1" height=".96" x="143" y="0" fill="#CBED34" />
<rect width="1" height=".96" x="144" y="0" fill="#CDEC34" />
<rect width="1" height=".96" x="145" y="0" fill="#D0EA34" />
<rect width="1" height=".96" x="146" y="0" fill="#D2E935" />
<rect width="1" height=".96" x="147" y="0" fill="#D4E735" />
<rect width="1" height=".96" x="148" y="0" fill="#D7E535" />
<rect width="1" height=".96" x="149" y="0" fill="#D9E436" />
<rect width="1" height=".96" x="150" y="0" fill="#DBE236" />
<rect width="1" height=".96" x="151" y="0" fill="#DDE037" />
<rect width="1" height=".96" x="152" y="0" fill="#DFDF37" />
<rect width="1" height=".96" x="153" y="0" fill="#E1DD37" />
<rect width="1" height=".96" x="154" y="0" fill="#E3DB38" />
<rect width="1" height=".96" x="155" y="0" fill="#E5D938" />
<rect width="1" height=".96" x="156" y="0" fill="#E7D739" />
<rect width="1" height=".96" x="157" y="0" fill="#E9D539" />
<rect width="1" height=".96" x="158" y="0" fill="#EBD339" />
<rect width="1" height=".96" x="159" y="0" fill="#ECD13A" />
<rect width="1" height=".96" x="160" y="0" fill="#EECF3A" />
<rect width="1" height=".96" x="161" y="0" fill="#EFCD3A" />
<rect width="1" height=".96" x="162" y="0" fill="#F1CB3A" />
<rect width="1" height=".96" x="163" y="0" fill="#F2C93A" />
<rect width="1" height=".96" x="164" y="0" fill="#F4C73A" />
<rect width="1" height=".96" x="165" y="0" fill="#F5C53A" />
<rect width="1" height=".96" x="166" y="0" fill="#F6C33A" />
<rect width="1" height=".96" x="167" y="0" fill="#F7C13A" />
<rect width="1" height=".96" x="168" y="0" fill="#F8BE39" />
<rect width="1" height=".96" x="169" y="0" fill="#F9BC39" />
<rect width="1" height=".96" x="170" y="0" fill="#FABA39" />
<rect width="1" height=".96" x="171" y="0" fill="#FBB838" />
<rect width="1" height=".96" x="172" y="0" fill="#FBB637" />
<rect width="1" height=".96" x="173" y="0" fill="#FCB336" />
<rect width="1" height=".96" x="174" y="0" fill="#FCB136" />
<rect width="1" height=".96" x="175" y="0" fill="#FDAE35" />
<rect width="1" height=".96" x="176" y="0" fill="#FDAC34" />
<rect width="1" height=".96" x="177" y="0" fill="#FEA933" />
<rect width="1" height=".96" x="178" y="0" fill="#FEA732" />
<rect width="1" height=".96" x="179" y="0" fill="#FEA431" />
<rect width="1" height=".96" x="180" y="0" fill="#FEA130" />
<rect width="1" height=".96" x="181" y="0" fill="#FE9E2F" />
<rect width="1" height=".96" x="182" y="0" fill="#FE9B2D" />
<rect width="1" height=".96" x="183" y="0" fill="#FE992C" />
<rect width="1" height=".96" x="184" y="0" fill="#FE962B" />
<rect width="1" height=".96" x="185" y="0" fill="#FE932A" />
<rect width="1" height=".96" x="186" y="0" fill="#FE9029" />
<rect width="1" height=".96" x="187" y="0" fill="#FD8D27" />
<rect width="1" height=".96" x="188" y="0" fill="#FD8A26" />
<rect width="1" height=".96" x="189" y="0" fill="#FC8725" />
<rect width="1" height=".96" x="190" y="0" fill="#FC8423" />
<rect width="1" height=".96" x="191" y="0" fill="#FB8122" />
<rect width="1" height=".96" x="192" y="0" fill="#FB7E21" />
<rect width="1" height=".96" x="193" y="0" fill="#FA7B1F" />
<rect width="1" height=".96" x="194" y="0" fill="#F9781E" />
<rect width="1" height=".96" x="195" y="0" fill="#F9751D" />
<rect width="1" height=".96" x="196" y="0" fill="#F8721C" />
<rect width="1" height=".96" x="197" y="0" fill="#F76F1A" />
<rect width="1" height=".96" x="198" y="0" fill="#F66C19" />
<rect width="1" height=".96" x="199" y="0" fill="#F56918" />
<rect width="1" height=".96" x="200" y="0" fill="#F46617" />
<rect width="1" height=".96" x="201" y="0" fill="#F36315" />
<rect width="1" height=".96" x="202" y="0" fill="#F26014" />
<rect width="1" height=".96" x="203" y="0" fill="#F15D13" />
<rect width="1" height=".96" x="204" y="0" fill="#F05B12" />
<rect width="1" height=".96" x="205" y="0" fill="#EF5811" />
<rect width="1" height=".96" x="206" y="0" fill="#ED5510" />
<rect width="1" height=".96" x="207" y="0" fill="#EC530F" />
<rect width="1" height=".96" x="208" y="0" fill="#EB500E" />
<rect width="1" height=".96" x="209" y="0" fill="#EA4E0D" />
<rect width="1" height=".96" x="210" y="0" fill="#E84B0C" />
<rect width="1" height=".96" x="211" y="0" fill="#E7490C" />
<rect width="1" height=".96" x="212" y="0" fill="#E5470B" />
<rect width="1" height=".96" x="213" y="0" fill="#E4450A" />
<rect width="1" height=".96" x="214" y="0" fill="#E2430A" />
<rect width="1" height=".96" x="215" y="0" fill="#E14109" />
<rect width="1" height=".96" x="216" y="0" fill="#DF3F08" />
<rect width="1" height=".96" x="217" y="0" fill="#DD3D08" />
<rect width="1" height=".96" x="218" y="0" fill="#DC3B07" />
<rect width="1" height=".96" x="219" y="0" fill="#DA3907" />
<rect width="1" height=".96" x="220" y="0" fill="#D83706" />
<rect width="1" height=".96" x="221" y="0" fill="#D63506" />
<rect width="1" height=".96" x="222" y="0" fill="#D43305" />
<rect width="1" height=".96" x="223" y="0" fill="#D23105" />
<rect width="1" height=".96" x="224" y="0" fill="#D02F05" />
<rect width="1" height=".96" x="225" y="0" fill="#CE2D04" />
<rect width="1" height=".96" x="226" y="0" fill="#CC2B04" />
<rect width="1" height=".96" x="227" y="0" fill="#CA2A04" />
<rect width="1" height=".96" x="228" y="0" fill="#C82803" />
<rect width="1" height=".96" x="229" y="0" fill="#C52603" />
<rect width="1" height=".96" x="230" y="0" fill="#C32503" />
<rect width="1" height=".96" x="231" y="0" fill="#C12302" />
<rect width="1" height=".96" x="232" y="0" fill="#BE2102" />
<rect width="1" height=".96" x="233" y="0" fill="#BC2002" />
<rect width="1" height=".96" x="234" y="0" fill="#B91E02" />
<rect width="1" height=".96" x="235" y="0" fill="#B71D02" />
<rect width="1" height=".96" x="236" y="0" fill="#B41B01" />
<rect width="1" height=".96" x="237" y="0" fill="#B21A01" />
<rect width="1" height=".96" x="238" y="0" fill="#AF1801" />
<rect width="1" height=".96" x="239" y="0" fill="#AC1701" />
<rect width="1" height=".96" x="240" y="0" fill="#A91601" />
<rect width="1" height=".96" x="241" y="0" fill="#A71401" />
<rect width="1" height=".96" x="242" y="0" fill="#A41301" />
<rect width="1" height=".96" x="243" y="0" fill="#A11201" />
<rect width="1" height=".96" x="244" y="0" fill="#9E1001" />
<rect width="1" height=".96" x="245" y="0" fill="#9B0F01" />
<rect width="1" height=".96" x="246" y="0" fill="#980E01" />
<rect width="1" height=".96" x="247" y="0" fill="#950D01" />
<rect width="1" height=".96" x="248" y="0" fill="#920B01" />
<rect width="1" height=".96" x="249" y="0" fill="#8E0A01" />
<rect width="1" height=".96" x="250" y="0" fill="#8B0902" />
<rect width="1" height=".96" x="251" y="0" fill="#880802" />
<rect width="1" height=".96" x="252" y="0" fill="#850702" />
<rect width="1" height=".96" x="253" y="0" fill="#810602" />
<rect width="1" height=".96" x="254" y="0" fill="#7E0502" />
<rect width="1" height=".96" x="255" y="0" fill="#7A0403" />
</svg>